<svg xmlns="http://www.w3.org/2000/svg" width="760" height="420" viewBox="0 0 760 420" font-family="Georgia, serif" font-size="13">
  <defs>
    <marker id="arr" markerWidth="8" markerHeight="8" refX="6" refY="3" orient="auto"><path d="M0,0 L0,6 L8,3 z" fill="#94a3b8"/></marker>
    <marker id="arr-gold" markerWidth="8" markerHeight="8" refX="6" refY="3" orient="auto"><path d="M0,0 L0,6 L8,3 z" fill="#fbbf24"/></marker>
  </defs>
  <rect width="760" height="420" fill="white"/>
  <text x="380" y="28" text-anchor="middle" font-size="15" font-weight="bold" fill="#0f172a">Going Concern Tracker - Architecture</text>
  <rect x="30" y="55" width="130" height="50" rx="6" fill="#f8fafc" stroke="#cbd5e1" stroke-width="1.5"/>
  <text x="95" y="75" text-anchor="middle" font-weight="bold" fill="#0f172a">SEC EDGAR</text>
  <text x="95" y="92" text-anchor="middle" font-size="11" fill="#64748b">10-K filings</text>
  <line x1="160" y1="80" x2="200" y2="80" stroke="#94a3b8" stroke-width="1.5" marker-end="url(#arr)"/>
  <rect x="200" y="40" width="160" height="200" rx="8" fill="#f0f9ff" stroke="#7dd3fc" stroke-width="1.5"/>
  <text x="280" y="60" text-anchor="middle" font-size="11" font-weight="bold" fill="#0284c7">TIER 1 - DETERMINISTIC</text>
  <rect x="212" y="68" width="136" height="36" rx="4" fill="white" stroke="#bae6fd" stroke-width="1"/>
  <text x="280" y="83" text-anchor="middle" fill="#0f172a">EdgarClient</text>
  <text x="280" y="97" text-anchor="middle" font-size="10" fill="#64748b">rate-limit / retry</text>
  <line x1="280" y1="104" x2="280" y2="118" stroke="#94a3b8" stroke-width="1.5" marker-end="url(#arr)"/>
  <rect x="212" y="118" width="136" height="36" rx="4" fill="white" stroke="#bae6fd" stroke-width="1"/>
  <text x="280" y="133" text-anchor="middle" fill="#0f172a">Filing Parser</text>
  <text x="280" y="147" text-anchor="middle" font-size="10" fill="#64748b">heading match / extract</text>
  <line x1="280" y1="154" x2="280" y2="168" stroke="#94a3b8" stroke-width="1.5" marker-end="url(#arr)"/>
  <rect x="212" y="168" width="136" height="36" rx="4" fill="white" stroke="#bae6fd" stroke-width="1"/>
  <text x="280" y="183" text-anchor="middle" fill="#0f172a">persistence</text>
  <text x="280" y="197" text-anchor="middle" font-size="10" fill="#64748b">upsert / idempotent</text>
  <line x1="360" y1="160" x2="400" y2="160" stroke="#94a3b8" stroke-width="1.5" marker-end="url(#arr)"/>
  <rect x="400" y="100" width="170" height="120" rx="8" fill="#fdf4ff" stroke="#d8b4fe" stroke-width="1.5"/>
  <text x="485" y="120" text-anchor="middle" font-size="11" font-weight="bold" fill="#7e22ce">TIER 2 - STRUCTURED LLM</text>
  <rect x="412" y="128" width="146" height="36" rx="4" fill="white" stroke="#e9d5ff" stroke-width="1"/>
  <text x="485" y="143" text-anchor="middle" fill="#0f172a">Claude + Instructor</text>
  <text x="485" y="157" text-anchor="middle" font-size="10" fill="#64748b">Haiku primary / Sonnet fallback</text>
  <line x1="485" y1="164" x2="485" y2="178" stroke="#c4b5fd" stroke-width="1" stroke-dasharray="3,2"/>
  <rect x="440" y="178" width="90" height="28" rx="4" fill="white" stroke="#c4b5fd" stroke-width="1"/>
  <text x="485" y="197" text-anchor="middle" font-size="10" fill="#7e22ce">Langfuse tracing</text>
  <line x1="570" y1="160" x2="610" y2="160" stroke="#94a3b8" stroke-width="1.5" marker-end="url(#arr)"/>
  <rect x="610" y="130" width="130" height="60" rx="8" fill="#f0fdf4" stroke="#86efac" stroke-width="1.5"/>
  <text x="675" y="148" text-anchor="middle" font-size="11" font-weight="bold" fill="#15803d">TIER 3 - VALIDATION</text>
  <rect x="620" y="156" width="110" height="30" rx="4" fill="white" stroke="#bbf7d0" stroke-width="1"/>
  <text x="675" y="170" text-anchor="middle" fill="#0f172a">validator</text>
  <text x="675" y="183" text-anchor="middle" font-size="10" fill="#64748b">substring match / hard fail</text>
  <line x1="675" y1="200" x2="675" y2="248" stroke="#94a3b8" stroke-width="1.5" marker-end="url(#arr)"/>
  <rect x="610" y="248" width="130" height="50" rx="6" fill="#fafafa" stroke="#cbd5e1" stroke-width="1.5"/>
  <text x="675" y="268" text-anchor="middle" font-weight="bold" fill="#0f172a">Neon Postgres</text>
  <text x="675" y="284" text-anchor="middle" font-size="10" fill="#64748b">CHECK constraints</text>
  <rect x="380" y="300" width="130" height="50" rx="6" fill="#fafafa" stroke="#cbd5e1" stroke-width="1.5"/>
  <text x="445" y="320" text-anchor="middle" font-weight="bold" fill="#0f172a">FastAPI</text>
  <text x="445" y="336" text-anchor="middle" font-size="10" fill="#64748b">12 endpoints / REST</text>
  <line x1="640" y1="273" x2="510" y2="325" stroke="#94a3b8" stroke-width="1.5" marker-end="url(#arr)"/>
  <rect x="220" y="300" width="130" height="50" rx="6" fill="#fafafa" stroke="#cbd5e1" stroke-width="1.5"/>
  <text x="285" y="320" text-anchor="middle" font-weight="bold" fill="#0f172a">Next.js 14</text>
  <text x="285" y="336" text-anchor="middle" font-size="10" fill="#64748b">App Router / TypeScript</text>
  <line x1="380" y1="325" x2="350" y2="325" stroke="#94a3b8" stroke-width="1.5" marker-end="url(#arr)"/>
  <rect x="30" y="300" width="150" height="50" rx="6" fill="#fffbeb" stroke="#fde68a" stroke-width="1.5"/>
  <text x="105" y="320" text-anchor="middle" font-weight="bold" fill="#92400e">GitHub Actions</text>
  <text x="105" y="336" text-anchor="middle" font-size="10" fill="#78350f">daily 06:00 UTC</text>
  <line x1="155" y1="308" x2="200" y2="220" stroke="#fbbf24" stroke-width="1.5" stroke-dasharray="5,3" marker-end="url(#arr-gold)"/>
  <text x="150" y="268" font-size="10" fill="#92400e">refresh CLI</text>
  <rect x="50" y="360" width="110" height="40" rx="6" fill="#f8fafc" stroke="#e2e8f0" stroke-width="1"/>
  <text x="105" y="384" text-anchor="middle" font-size="12" fill="#475569">User / Browser</text>
  <line x1="160" y1="375" x2="220" y2="345" stroke="#94a3b8" stroke-width="1.5" marker-end="url(#arr)"/>
</svg>
